<mxfile host="app.diagrams.net" modified="2024-04-15T18:56:12.185Z" agent="Mozilla/5.0 (Windows NT 10.0; Win64; x64) AppleWebKit/537.36 (KHTML, like Gecko) Chrome/123.0.0.0 Safari/537.36 Edg/123.0.0.0" version="22.1.18" etag="4FNsGhLs52VWup2vr21y" type="github">
  <diagram name="Page-1" id="WqbNIK2d3LnApRF4Po9c">
    <mxGraphModel>
      <root>
        <mxCell id="0" />
        <mxCell id="1" parent="0" />
      </root>
    </mxGraphModel>
  </diagram>
</mxfile>
